# xmcd
#
# Track frame offsets: 
#        150
#        26549
#        42822
#        76091
#        112022
#        125226
#        154319
#        180571
#        205610
#
# Disc length: 3037 seconds
#
# Revision: 1
# Processed by: cddbd v1.5.1PL0 Copyright (c) Steve Scherf et al.
# Submitted via: ExactAudioCopy v0.95a5
#
DISCID=6f0bdb09
DTITLE=Joey Defrancesco - The Champ
DYEAR=1999
DGENRE=Jazz
TTITLE0=The Champ
TTITLE1=Mack The Knife
TTITLE2=When Johnie Comes Marchin' Home
TTITLE3=Lover Man Oh Where Can You Be
TTITLE4=Organ Grinder's Swing
TTITLE5=OGD
TTITLE6=The Preacher
TTITLE7=Walk On The Wild Side
TTITLE8=The Cat
EXTD=ID3G: 0
EXTT0=
EXTT1=
EXTT2=
EXTT3=
EXTT4=
EXTT5=
EXTT6=
EXTT7=
EXTT8=
PLAYORDER=
